<mxfile host="app.diagrams.net" agent="Mozilla/5.0 (Macintosh; Intel Mac OS X 10_15_7) AppleWebKit/537.36 (KHTML, like Gecko) Chrome/135.0.0.0 Safari/537.36" version="26.2.14">
  <diagram name="Page-1" id="e7e014a7-5840-1c2e-5031-d8a46d1fe8dd">
    <mxGraphModel dx="586" dy="718" grid="1" gridSize="10" guides="1" tooltips="1" connect="1" arrows="1" fold="1" page="1" pageScale="1" pageWidth="1169" pageHeight="826" background="none" math="0" shadow="0">
      <root>
        <mxCell id="0" />
        <mxCell id="1" parent="0" />
        <mxCell id="2" value="авторизация" style="swimlane;whiteSpace=wrap" parent="1" vertex="1">
          <mxGeometry x="164.5" y="128" width="280" height="570" as="geometry" />
        </mxCell>
        <mxCell id="5" value="" style="ellipse;shape=startState;fillColor=#000000;strokeColor=#ff0000;" parent="2" vertex="1">
          <mxGeometry x="100" y="40" width="30" height="30" as="geometry" />
        </mxCell>
        <mxCell id="6" value="" style="edgeStyle=elbowEdgeStyle;elbow=horizontal;verticalAlign=bottom;endArrow=open;endSize=8;strokeColor=#FF0000;endFill=1;rounded=0" parent="2" source="5" target="7" edge="1">
          <mxGeometry x="100" y="40" as="geometry">
            <mxPoint x="115" y="110" as="targetPoint" />
          </mxGeometry>
        </mxCell>
        <mxCell id="7" value="пользователь" style="" parent="2" vertex="1">
          <mxGeometry x="60" y="110" width="110" height="50" as="geometry" />
        </mxCell>
        <mxCell id="8" value="ввети логин и пароль" style="" parent="2" vertex="1">
          <mxGeometry x="60" y="192" width="140" height="38" as="geometry" />
        </mxCell>
        <mxCell id="9" value="" style="endArrow=open;strokeColor=#FF0000;endFill=1;rounded=0;" parent="2" source="7" edge="1">
          <mxGeometry relative="1" as="geometry">
            <mxPoint x="117.5" y="192" as="targetPoint" />
          </mxGeometry>
        </mxCell>
        <mxCell id="10" value="открываем главное меню" style="" parent="2" vertex="1">
          <mxGeometry x="60" y="325" width="170" height="50" as="geometry" />
        </mxCell>
        <mxCell id="11" value="" style="endArrow=open;strokeColor=#FF0000;endFill=1;rounded=0;" parent="2" edge="1">
          <mxGeometry relative="1" as="geometry">
            <mxPoint x="115.5" y="302" as="sourcePoint" />
            <mxPoint x="115.5" y="322" as="targetPoint" />
          </mxGeometry>
        </mxCell>
        <mxCell id="12" value="" style="edgeStyle=elbowEdgeStyle;elbow=horizontal;strokeColor=#FF0000;endArrow=open;endFill=1;rounded=0" parent="2" source="10" target="7" edge="1">
          <mxGeometry width="100" height="100" relative="1" as="geometry">
            <mxPoint x="160" y="290" as="sourcePoint" />
            <mxPoint x="260" y="190" as="targetPoint" />
            <Array as="points">
              <mxPoint x="30" y="250" />
            </Array>
          </mxGeometry>
        </mxCell>
        <mxCell id="CKYPwapdKhQ8rXLzOjV9-41" value="поверка системой" style="" vertex="1" parent="2">
          <mxGeometry x="60" y="266" width="140" height="38" as="geometry" />
        </mxCell>
        <mxCell id="CKYPwapdKhQ8rXLzOjV9-42" value="" style="edgeStyle=orthogonalEdgeStyle;rounded=0;orthogonalLoop=1;jettySize=auto;html=1;entryX=0.975;entryY=0.659;entryDx=0;entryDy=0;entryPerimeter=0;" edge="1" parent="2" source="CKYPwapdKhQ8rXLzOjV9-41" target="7">
          <mxGeometry relative="1" as="geometry">
            <Array as="points">
              <mxPoint x="130" y="242" />
              <mxPoint x="226" y="242" />
              <mxPoint x="226" y="143" />
            </Array>
          </mxGeometry>
        </mxCell>
        <mxCell id="CKYPwapdKhQ8rXLzOjV9-43" value="ошибка" style="html=1;whiteSpace=wrap;" vertex="1" parent="2">
          <mxGeometry x="185.5" y="160" width="80" height="20" as="geometry" />
        </mxCell>
        <mxCell id="3" value="главное меню" style="swimlane;whiteSpace=wrap" parent="1" vertex="1">
          <mxGeometry x="444.5" y="128" width="280" height="570" as="geometry" />
        </mxCell>
        <mxCell id="CKYPwapdKhQ8rXLzOjV9-44" value="выбор действия&amp;nbsp;" style="swimlane;fontStyle=0;childLayout=stackLayout;horizontal=1;startSize=26;fillColor=none;horizontalStack=0;resizeParent=1;resizeParentMax=0;resizeLast=0;collapsible=1;marginBottom=0;whiteSpace=wrap;html=1;" vertex="1" parent="3">
          <mxGeometry x="57.5" y="42" width="164.5" height="104" as="geometry" />
        </mxCell>
        <mxCell id="CKYPwapdKhQ8rXLzOjV9-45" value="выбор действия" style="text;strokeColor=none;fillColor=none;align=left;verticalAlign=top;spacingLeft=4;spacingRight=4;overflow=hidden;rotatable=0;points=[[0,0.5],[1,0.5]];portConstraint=eastwest;whiteSpace=wrap;html=1;" vertex="1" parent="CKYPwapdKhQ8rXLzOjV9-44">
          <mxGeometry y="26" width="164.5" height="26" as="geometry" />
        </mxCell>
        <mxCell id="CKYPwapdKhQ8rXLzOjV9-46" value="ввод/ред-е данных" style="text;strokeColor=none;fillColor=none;align=left;verticalAlign=top;spacingLeft=4;spacingRight=4;overflow=hidden;rotatable=0;points=[[0,0.5],[1,0.5]];portConstraint=eastwest;whiteSpace=wrap;html=1;" vertex="1" parent="CKYPwapdKhQ8rXLzOjV9-44">
          <mxGeometry y="52" width="164.5" height="26" as="geometry" />
        </mxCell>
        <mxCell id="CKYPwapdKhQ8rXLzOjV9-47" value="сохранение изменений&amp;nbsp;" style="text;strokeColor=none;fillColor=none;align=left;verticalAlign=top;spacingLeft=4;spacingRight=4;overflow=hidden;rotatable=0;points=[[0,0.5],[1,0.5]];portConstraint=eastwest;whiteSpace=wrap;html=1;" vertex="1" parent="CKYPwapdKhQ8rXLzOjV9-44">
          <mxGeometry y="78" width="164.5" height="26" as="geometry" />
        </mxCell>
        <mxCell id="CKYPwapdKhQ8rXLzOjV9-49" value="действие" style="swimlane;fontStyle=0;childLayout=stackLayout;horizontal=1;startSize=26;fillColor=none;horizontalStack=0;resizeParent=1;resizeParentMax=0;resizeLast=0;collapsible=1;marginBottom=0;whiteSpace=wrap;html=1;" vertex="1" parent="3">
          <mxGeometry x="25.5" y="190" width="114.5" height="104" as="geometry" />
        </mxCell>
        <mxCell id="CKYPwapdKhQ8rXLzOjV9-62" style="edgeStyle=orthogonalEdgeStyle;rounded=0;orthogonalLoop=1;jettySize=auto;html=1;" edge="1" parent="CKYPwapdKhQ8rXLzOjV9-49" source="CKYPwapdKhQ8rXLzOjV9-50">
          <mxGeometry relative="1" as="geometry">
            <mxPoint x="170" y="142" as="targetPoint" />
          </mxGeometry>
        </mxCell>
        <mxCell id="CKYPwapdKhQ8rXLzOjV9-50" value="добавить" style="text;strokeColor=none;fillColor=none;align=left;verticalAlign=top;spacingLeft=4;spacingRight=4;overflow=hidden;rotatable=0;points=[[0,0.5],[1,0.5]];portConstraint=eastwest;whiteSpace=wrap;html=1;" vertex="1" parent="CKYPwapdKhQ8rXLzOjV9-49">
          <mxGeometry y="26" width="114.5" height="26" as="geometry" />
        </mxCell>
        <mxCell id="CKYPwapdKhQ8rXLzOjV9-51" value="изменить" style="text;strokeColor=none;fillColor=none;align=left;verticalAlign=top;spacingLeft=4;spacingRight=4;overflow=hidden;rotatable=0;points=[[0,0.5],[1,0.5]];portConstraint=eastwest;whiteSpace=wrap;html=1;" vertex="1" parent="CKYPwapdKhQ8rXLzOjV9-49">
          <mxGeometry y="52" width="114.5" height="26" as="geometry" />
        </mxCell>
        <mxCell id="CKYPwapdKhQ8rXLzOjV9-52" value="удалить" style="text;strokeColor=none;fillColor=none;align=left;verticalAlign=top;spacingLeft=4;spacingRight=4;overflow=hidden;rotatable=0;points=[[0,0.5],[1,0.5]];portConstraint=eastwest;whiteSpace=wrap;html=1;" vertex="1" parent="CKYPwapdKhQ8rXLzOjV9-49">
          <mxGeometry y="78" width="114.5" height="26" as="geometry" />
        </mxCell>
        <mxCell id="CKYPwapdKhQ8rXLzOjV9-53" style="edgeStyle=orthogonalEdgeStyle;rounded=0;orthogonalLoop=1;jettySize=auto;html=1;entryX=0.106;entryY=-0.021;entryDx=0;entryDy=0;entryPerimeter=0;" edge="1" parent="3" source="CKYPwapdKhQ8rXLzOjV9-45" target="CKYPwapdKhQ8rXLzOjV9-49">
          <mxGeometry relative="1" as="geometry" />
        </mxCell>
        <mxCell id="CKYPwapdKhQ8rXLzOjV9-60" style="edgeStyle=orthogonalEdgeStyle;rounded=0;orthogonalLoop=1;jettySize=auto;html=1;entryX=1;entryY=0.75;entryDx=0;entryDy=0;" edge="1" parent="3" source="CKYPwapdKhQ8rXLzOjV9-55" target="CKYPwapdKhQ8rXLzOjV9-59">
          <mxGeometry relative="1" as="geometry">
            <Array as="points">
              <mxPoint x="136" y="394" />
              <mxPoint x="136" y="466" />
              <mxPoint x="156" y="466" />
              <mxPoint x="156" y="500" />
            </Array>
          </mxGeometry>
        </mxCell>
        <mxCell id="CKYPwapdKhQ8rXLzOjV9-55" value="ввод/редактирование" style="swimlane;fontStyle=0;childLayout=stackLayout;horizontal=1;startSize=26;fillColor=none;horizontalStack=0;resizeParent=1;resizeParentMax=0;resizeLast=0;collapsible=1;marginBottom=0;whiteSpace=wrap;html=1;" vertex="1" parent="3">
          <mxGeometry x="145.5" y="342" width="110" height="104" as="geometry" />
        </mxCell>
        <mxCell id="CKYPwapdKhQ8rXLzOjV9-56" value="ФИО" style="text;strokeColor=none;fillColor=none;align=left;verticalAlign=top;spacingLeft=4;spacingRight=4;overflow=hidden;rotatable=0;points=[[0,0.5],[1,0.5]];portConstraint=eastwest;whiteSpace=wrap;html=1;" vertex="1" parent="CKYPwapdKhQ8rXLzOjV9-55">
          <mxGeometry y="26" width="110" height="26" as="geometry" />
        </mxCell>
        <mxCell id="CKYPwapdKhQ8rXLzOjV9-57" value="звание" style="text;strokeColor=none;fillColor=none;align=left;verticalAlign=top;spacingLeft=4;spacingRight=4;overflow=hidden;rotatable=0;points=[[0,0.5],[1,0.5]];portConstraint=eastwest;whiteSpace=wrap;html=1;" vertex="1" parent="CKYPwapdKhQ8rXLzOjV9-55">
          <mxGeometry y="52" width="110" height="26" as="geometry" />
        </mxCell>
        <mxCell id="CKYPwapdKhQ8rXLzOjV9-58" value="возраст" style="text;strokeColor=none;fillColor=none;align=left;verticalAlign=top;spacingLeft=4;spacingRight=4;overflow=hidden;rotatable=0;points=[[0,0.5],[1,0.5]];portConstraint=eastwest;whiteSpace=wrap;html=1;" vertex="1" parent="CKYPwapdKhQ8rXLzOjV9-55">
          <mxGeometry y="78" width="110" height="26" as="geometry" />
        </mxCell>
        <mxCell id="CKYPwapdKhQ8rXLzOjV9-59" value="сохранение изменений" style="html=1;whiteSpace=wrap;" vertex="1" parent="3">
          <mxGeometry x="25.5" y="482" width="110" height="50" as="geometry" />
        </mxCell>
        <mxCell id="CKYPwapdKhQ8rXLzOjV9-61" style="edgeStyle=orthogonalEdgeStyle;rounded=0;orthogonalLoop=1;jettySize=auto;html=1;entryX=0.079;entryY=-0.02;entryDx=0;entryDy=0;entryPerimeter=0;" edge="1" parent="3" source="CKYPwapdKhQ8rXLzOjV9-51" target="CKYPwapdKhQ8rXLzOjV9-55">
          <mxGeometry relative="1" as="geometry" />
        </mxCell>
        <mxCell id="20" value="" style="endArrow=open;strokeColor=#FF0000;endFill=1;rounded=0" parent="1" source="10" target="3" edge="1">
          <mxGeometry relative="1" as="geometry" />
        </mxCell>
        <mxCell id="CKYPwapdKhQ8rXLzOjV9-65" style="edgeStyle=orthogonalEdgeStyle;rounded=0;orthogonalLoop=1;jettySize=auto;html=1;" edge="1" parent="1" source="CKYPwapdKhQ8rXLzOjV9-64" target="CKYPwapdKhQ8rXLzOjV9-59">
          <mxGeometry relative="1" as="geometry" />
        </mxCell>
        <mxCell id="CKYPwapdKhQ8rXLzOjV9-64" value="удаление пользователя" style="html=1;whiteSpace=wrap;" vertex="1" parent="1">
          <mxGeometry x="465" y="455" width="110" height="50" as="geometry" />
        </mxCell>
        <mxCell id="CKYPwapdKhQ8rXLzOjV9-63" style="edgeStyle=orthogonalEdgeStyle;rounded=0;orthogonalLoop=1;jettySize=auto;html=1;" edge="1" parent="1" source="CKYPwapdKhQ8rXLzOjV9-52" target="CKYPwapdKhQ8rXLzOjV9-64">
          <mxGeometry relative="1" as="geometry">
            <mxPoint x="520" y="480" as="targetPoint" />
          </mxGeometry>
        </mxCell>
      </root>
    </mxGraphModel>
  </diagram>
</mxfile>
